<?xml version="1.0" standalone="no"?>
<!DOCTYPE svg PUBLIC "-//W3C//DTD SVG 20010904//EN"
 "http://www.w3.org/TR/2001/REC-SVG-20010904/DTD/svg10.dtd">
<svg version="1.0" xmlns="http://www.w3.org/2000/svg"
 width="548.000000pt" height="548.000000pt" viewBox="0 0 548.000000 548.000000"
 preserveAspectRatio="xMidYMid meet">
<metadata>
Created by potrace 1.11, written by Peter Selinger 2001-2013
</metadata>
<g transform="translate(0.000000,548.000000) scale(0.100000,-0.100000)"
fill="#000000" stroke="none">
<path d="M411 5458 c-18 -35 -32 -126 -31 -201 1 -56 -3 -75 -24 -112 -15 -24
-40 -53 -56 -65 -34 -24 -39 -50 -11 -50 11 0 23 -5 27 -11 3 -6 22 -18 42
-26 33 -14 37 -14 51 6 11 14 31 22 66 25 28 2 53 5 58 5 18 2 3 27 -38 63
-67 59 -75 81 -78 211 -2 88 2 119 15 145 12 23 13 32 4 32 -7 0 -18 -10 -25
-22z"/>
<path d="M700 5448 c18 -29 20 -50 20 -175 0 -84 -4 -144 -10 -148 -5 -3 -10
-17 -10 -31 0 -13 5 -24 10 -24 6 0 10 -13 10 -30 0 -20 5 -30 15 -30 8 0 15
9 15 19 0 36 12 51 40 51 52 0 54 -10 46 -256 -5 -169 -4 -230 5 -241 10 -11
8 -17 -9 -29 -13 -9 -22 -26 -22 -42 0 -23 -4 -27 -30 -28 -17 -1 -30 3 -30 7
0 5 7 9 16 9 13 0 15 7 9 38 -3 20 -10 41 -14 45 -12 12 -78 -2 -102 -22 -28
-23 -11 -71 25 -71 36 0 41 -15 38 -112 -3 -86 -2 -88 22 -94 33 -8 58 1 31
12 -27 10 -35 23 -35 61 0 27 6 35 35 49 52 24 65 14 65 -49 0 -29 -5 -58 -11
-64 -7 -7 -11 -60 -10 -149 1 -76 -1 -201 -5 -279 l-7 -140 -76 3 c-42 1 -123
3 -179 2 -94 0 -104 2 -109 19 -8 30 -60 33 -111 5 -51 -29 -107 -32 -120 -6
-12 23 -4 42 18 42 10 0 22 4 25 10 4 6 -12 8 -42 4 l-48 -5 35 30 c19 17 40
31 46 31 11 0 74 56 74 66 0 9 -49 4 -55 -6 -3 -5 -15 -10 -25 -10 -24 0 -103
-49 -136 -85 -13 -14 -29 -23 -34 -20 -15 9 -12 25 4 25 19 0 30 32 14 42 -10
6 -9 8 4 8 22 0 78 57 72 73 -3 8 10 20 30 30 37 17 57 60 38 79 -10 10 -82
-17 -82 -32 0 -13 -89 -99 -120 -115 l-30 -16 0 -439 c0 -282 4 -441 10 -445
6 -3 10 -17 10 -31 0 -13 -4 -24 -10 -24 -7 0 -10 -188 -10 -543 l0 -543 90
-15 c50 -8 94 -12 98 -8 4 4 29 5 57 2 71 -9 32 -19 -100 -28 -137 -8 -145
-11 -145 -40 0 -18 6 -24 28 -27 15 -2 26 -9 25 -15 -2 -10 39 -12 175 -12
139 1 185 -2 213 -14 20 -9 68 -18 107 -21 39 -3 93 -12 119 -20 88 -26 307
-75 364 -82 37 -4 59 -3 63 5 4 6 24 11 44 11 44 0 32 -18 -16 -23 -60 -7 -43
-24 31 -32 18 -2 77 -15 132 -30 55 -14 138 -32 184 -41 46 -8 117 -23 158
-35 72 -19 155 -24 327 -20 52 2 73 -2 87 -15 11 -9 19 -22 19 -27 0 -6 10
-24 23 -41 38 -52 84 -170 78 -203 -1 -6 3 -14 9 -18 5 -3 10 -19 10 -34 0
-15 4 -31 9 -36 14 -16 30 -122 36 -250 11 -184 -13 -289 -85 -371 -19 -23
-43 -53 -53 -68 -12 -17 -30 -28 -57 -32 -55 -9 -96 -37 -119 -82 -11 -21 -26
-44 -35 -51 -38 -31 -134 -83 -197 -106 -38 -14 -83 -32 -99 -40 -16 -8 -38
-15 -50 -15 -12 0 -18 -4 -15 -10 3 -5 1 -10 -4 -10 -6 0 -11 -4 -11 -10 0 -7
363 -10 1069 -10 941 0 1070 2 1075 15 3 8 11 15 18 15 7 0 26 15 42 34 25 28
30 43 33 97 2 45 0 59 -7 49 -8 -12 -10 -11 -10 8 0 38 -30 120 -54 145 -11
12 -20 30 -18 40 2 9 -4 24 -12 33 -9 8 -16 24 -16 34 0 10 -4 21 -9 24 -4 3
-14 33 -20 66 -7 33 -16 60 -22 60 -5 0 -9 -4 -9 -10 0 -5 -4 -10 -10 -10 -5
0 -10 7 -10 15 0 19 -10 19 -46 0 -39 -20 -75 -20 -68 0 9 21 -5 85 -18 85 -5
0 -30 14 -55 30 -24 17 -50 30 -57 30 -7 0 -25 18 -39 39 l-26 39 37 7 c20 4
66 9 101 10 49 3 69 9 87 26 16 15 20 25 13 29 -6 4 -10 10 -10 14 3 19 -1 24
-23 30 -13 3 -34 2 -46 -2 -12 -5 -36 -6 -52 -4 -25 4 -29 8 -25 28 3 16 0 24
-10 24 -8 0 -12 4 -8 9 3 5 2 12 -3 15 -11 6 -3 67 10 84 6 6 25 12 44 12 18
0 45 5 61 11 29 12 76 19 151 24 52 3 71 17 52 40 -16 19 -29 19 -68 -1 -24
-11 -47 -14 -89 -9 -32 3 -98 10 -147 14 -56 6 -91 13 -97 22 -5 8 -9 35 -9
61 0 26 -5 50 -10 53 -6 4 -10 14 -9 23 4 46 -2 62 -26 68 -29 7 -33 36 -11
97 12 36 11 43 -10 86 -13 26 -29 74 -34 107 -6 32 -13 66 -17 74 -5 15 -8 37
-16 145 -2 33 -9 103 -16 155 -6 53 -10 156 -8 231 4 172 9 182 127 222 45 15
85 25 88 22 3 -3 -2 -21 -11 -40 -22 -46 -21 -54 6 -75 16 -13 24 -30 25 -60
2 -22 7 -51 12 -64 10 -27 115 -119 187 -165 29 -18 69 -46 89 -62 20 -16 44
-29 53 -29 9 0 29 -7 45 -15 l29 -15 -6 56 c-3 31 -12 63 -21 73 -8 9 -18 28
-21 44 -4 15 -13 31 -20 35 -22 13 -22 36 2 61 12 14 19 29 14 34 -12 12 11
72 40 103 13 14 20 25 14 24 -19 -4 -50 0 -63 9 -19 12 24 95 45 87 8 -3 20
-6 27 -6 7 0 21 -6 31 -14 17 -12 17 -16 6 -30 -8 -9 -11 -19 -7 -23 3 -4 12
0 19 9 16 19 73 42 90 35 8 -3 19 -2 25 2 7 4 -23 21 -70 41 -98 39 -107 46
-79 55 12 4 54 -3 96 -16 42 -12 78 -19 82 -16 9 10 -24 43 -78 78 -47 29 -55
45 -50 87 1 8 -6 20 -16 27 -15 11 -16 17 -6 34 10 16 9 20 -3 25 -9 3 -23 2
-32 -2 -9 -5 -37 -10 -62 -11 -25 -2 -52 -6 -60 -11 -8 -4 -35 -11 -60 -15
-25 -4 -51 -12 -58 -18 -9 -7 -20 -7 -36 1 -14 6 -37 7 -58 3 -32 -8 -36 -6
-45 20 -6 15 -25 37 -43 47 -17 11 -38 29 -46 41 -8 11 -21 21 -28 21 -25 0
-40 31 -40 82 -1 32 -6 53 -14 56 -29 9 -57 102 -31 102 7 0 10 12 7 30 -4 24
-1 30 14 30 16 0 19 6 16 41 -3 38 0 44 27 59 21 12 32 27 36 51 4 19 7 28 8
22 3 -33 91 14 91 48 0 10 5 21 10 24 6 3 10 18 10 33 0 15 7 39 14 54 19 35
6 43 -27 18 -30 -24 -49 -26 -41 -5 4 8 1 15 -5 15 -7 0 4 14 24 31 19 17 35
37 35 44 0 7 12 21 27 31 15 9 35 27 44 38 15 18 15 22 1 32 -18 13 -8 34 18
34 10 0 31 11 46 25 20 19 30 22 35 13 5 -8 13 -2 26 20 10 18 21 32 24 32 14
0 46 38 62 73 10 20 22 37 27 37 5 0 25 -11 44 -24 26 -17 32 -26 23 -35 -8
-8 -6 -15 9 -25 10 -8 21 -10 22 -5 8 22 39 5 93 -52 33 -33 59 -69 59 -79 0
-10 8 -25 18 -32 23 -16 43 -74 47 -134 2 -30 12 -55 32 -81 17 -21 28 -43 26
-48 -2 -6 12 -33 30 -61 29 -45 32 -58 30 -110 -6 -139 -2 -365 8 -444 24
-198 29 -228 44 -283 8 -32 18 -82 21 -112 l7 -54 33 41 c19 22 34 45 34 51 0
6 14 22 32 37 29 24 32 32 32 85 2 100 21 74 22 -29 1 -87 3 -97 27 -126 27
-31 36 -57 17 -45 -14 8 -50 -13 -50 -30 0 -8 15 -17 35 -21 26 -4 35 -11 35
-25 0 -24 -22 -34 -47 -20 -24 12 -42 1 -62 -37 -58 -108 -75 -126 -142 -145
-13 -4 -18 -35 -28 -174 -14 -188 -59 -398 -115 -533 -24 -59 -30 -88 -29
-138 1 -69 13 -93 43 -85 13 3 20 0 20 -8 0 -11 2 -11 10 1 5 8 20 15 32 16
13 1 93 4 178 8 85 4 200 11 255 17 145 14 700 43 770 41 73 -3 118 -7 168
-17 l37 -8 0 517 0 517 -22 -12 c-13 -6 -37 -22 -54 -35 -25 -18 -38 -22 -60
-15 -35 10 -94 3 -94 -11 0 -7 -28 -9 -76 -6 -59 4 -78 9 -89 24 -7 10 -22 30
-34 43 -28 32 -27 59 4 71 14 5 25 14 25 20 0 14 -39 12 -94 -4 -27 -8 -54
-12 -62 -9 -8 3 -20 1 -27 -5 -17 -13 -67 -21 -67 -11 0 5 9 9 21 9 11 0 17 5
14 10 -3 6 2 10 12 11 12 0 9 4 -9 9 -16 5 -49 3 -83 -5 -42 -10 -55 -10 -52
-2 6 19 54 39 152 64 190 48 321 85 345 97 27 13 89 7 93 -9 1 -5 7 -8 12 -5
6 2 40 6 78 8 l67 4 0 939 c0 888 -1 939 -17 939 -10 0 -54 -7 -97 -14 -43 -8
-85 -12 -92 -9 -11 4 -51 -28 -154 -127 -15 -14 -34 -24 -43 -22 -9 2 -17 -3
-17 -10 0 -8 -16 -29 -35 -48 -29 -28 -37 -31 -50 -20 -13 11 -17 9 -28 -19
-13 -36 -44 -42 -72 -12 -17 19 -16 21 16 41 19 11 40 18 47 15 19 -7 14 9 -7
22 -24 15 -81 -1 -81 -23 0 -8 -7 -14 -15 -14 -8 0 -18 0 -22 0 -5 0 -8 6 -8
13 0 6 -10 19 -23 28 -20 14 -28 15 -62 3 -22 -8 -46 -11 -54 -8 -15 6 -76
-33 -76 -48 0 -4 11 -8 25 -8 14 0 25 -4 25 -10 0 -5 -9 -10 -19 -10 -22 0
-74 43 -64 53 3 4 1 7 -5 7 -7 0 -12 -7 -12 -15 0 -8 -4 -15 -10 -15 -5 0 -10
5 -10 10 0 6 -8 10 -17 8 -12 -2 -23 10 -36 36 -10 22 -38 58 -62 81 -23 23
-46 51 -49 63 -8 23 -34 48 -42 40 -3 -3 4 -22 16 -42 11 -21 17 -43 13 -49
-13 -20 -9 -76 5 -82 7 -3 12 -15 10 -27 -2 -16 -10 -23 -25 -22 -22 0 -22 -7
2 -36 7 -8 16 -31 20 -50 l7 -35 -21 27 c-11 14 -21 29 -21 33 0 4 -14 27 -30
52 -16 24 -30 47 -30 50 0 4 -12 24 -27 46 -17 25 -23 41 -16 45 7 5 6 11 -3
20 -8 7 -14 10 -14 7 0 -10 -65 58 -109 114 -33 43 -41 60 -36 80 5 24 4 25
-9 8 -14 -18 -15 -17 -18 5 -2 15 -9 22 -20 20 -10 -2 -18 1 -18 6 0 6 -10 12
-23 16 -28 7 -87 62 -87 82 0 8 5 12 10 9 6 -4 27 -8 46 -10 34 -3 35 -2 15
11 -12 9 -21 22 -21 30 0 24 35 16 65 -16 16 -16 33 -30 38 -30 5 0 42 -34 82
-76 79 -82 135 -121 135 -94 0 6 -7 10 -15 10 -8 0 -15 7 -15 15 0 8 -6 15
-14 15 -8 0 -16 7 -20 15 -3 8 -12 15 -20 15 -19 0 -49 67 -52 118 -2 34 0 43
11 38 9 -3 12 0 8 10 -3 7 -11 14 -19 14 -8 0 -14 6 -14 13 0 37 -167 168
-284 223 -28 14 -68 33 -88 44 -20 11 -46 20 -57 20 -11 0 -22 4 -26 10 -3 5
-33 12 -66 16 -56 6 -60 8 -55 29 4 15 1 25 -9 29 -8 3 -15 1 -15 -4 0 -15
-68 -12 -73 3 -3 8 -13 4 -31 -12 -14 -14 -29 -22 -32 -18 -13 12 -46 -14 -41
-33 3 -13 0 -16 -13 -13 -12 3 -16 11 -13 24 3 10 0 19 -5 19 -6 0 -16 17 -22
38 -11 41 -79 97 -160 132 -14 6 -36 15 -50 22 -33 14 -54 22 -126 47 -80 28
-240 24 -364 -8 -47 -12 -149 -37 -228 -56 -78 -19 -159 -42 -180 -51 -147
-66 -210 -103 -261 -154 -57 -57 -196 -160 -256 -189 -59 -29 -201 -158 -244
-221 -13 -19 -36 -48 -51 -65 -34 -37 -88 -132 -118 -205 -13 -30 -27 -64 -32
-75 -31 -71 -40 -129 -41 -253 -1 -73 -5 -135 -10 -138 -16 -10 -46 -78 -54
-121 -8 -49 -18 -58 -61 -54 -18 1 -36 -4 -43 -13 -8 -9 -28 -16 -45 -17 -17
0 -40 -4 -51 -8 -44 -18 -46 -6 -39 308 4 163 9 325 13 361 5 59 8 65 28 62
28 -4 39 15 13 23 -20 6 -26 25 -13 38 3 4 12 2 19 -4 7 -6 35 -11 61 -12 47
-2 48 -1 48 28 0 30 -1 30 -75 40 l-75 10 -3 145 c-4 174 3 237 23 220 8 -7
19 -9 25 -5 6 4 21 0 34 -9 22 -14 25 -13 45 10 16 19 31 25 54 23 52 -3 69 0
64 14 -2 6 -10 11 -16 9 -6 -1 -11 2 -11 8 0 5 12 13 28 16 15 4 32 11 39 16
7 5 21 7 32 3 10 -3 22 -1 26 5 3 5 28 10 56 10 27 0 49 4 49 9 0 5 -20 33
-44 62 -46 56 -61 94 -58 144 4 61 2 171 -4 198 -3 15 -12 27 -20 27 -11 0
-13 -6 -8 -22 9 -26 8 -49 -4 -163 -11 -96 -27 -132 -87 -180 -45 -37 -59 -68
-29 -63 17 3 43 -27 32 -37 -13 -13 -46 15 -68 57 -18 35 -23 63 -26 163 -2
66 -6 139 -9 162 -4 23 -1 51 5 63 10 19 8 20 -33 20 -61 0 -68 -20 -75 -197
-5 -139 -5 -143 -26 -143 -12 0 -31 -7 -42 -15 -30 -22 -63 -19 -69 8 -2 12
-6 81 -7 152 -3 137 -16 186 -51 193 -16 3 -16 1 3 -30z m253 -140 c-5 -145
-12 -178 -35 -178 -16 0 1 291 19 323 17 30 21 -12 16 -145z m2071 -214 c9 -3
16 -10 16 -14 0 -8 -67 4 -77 14 -8 8 41 8 61 0z m64 -73 c-5 -24 -38 -27 -38
-3 0 10 3 21 6 25 11 11 35 -5 32 -22z m116 -56 c-8 -19 -48 -30 -71 -20 -15
6 -13 9 12 21 41 18 66 18 59 -1z m-316 -97 c14 -19 -4 -58 -27 -58 -11 0 -26
7 -35 15 -8 8 -19 15 -25 15 -24 0 -9 20 22 29 45 13 53 13 65 -1z m42 -38 c0
-5 -7 -10 -15 -10 -8 0 -15 5 -15 10 0 6 7 10 15 10 8 0 15 -4 15 -10z m1130
-43 c0 -11 -39 16 -45 31 -3 8 4 6 20 -5 13 -10 25 -21 25 -26z m-957 6 c-13
-2 -33 -2 -45 0 -13 2 -3 4 22 4 25 0 35 -2 23 -4z m-1622 -106 c-10 -9 -11
-8 -5 6 3 10 9 15 12 12 3 -3 0 -11 -7 -18z m1424 -7 c3 -5 1 -10 -4 -10 -6 0
-11 5 -11 10 0 6 2 10 4 10 3 0 8 -4 11 -10z m290 -60 c-10 -11 -22 -17 -27
-13 -6 3 -13 1 -17 -4 -10 -16 -70 -42 -76 -33 -12 19 9 39 46 45 21 4 41 11
45 16 3 5 15 9 26 9 20 0 20 -1 3 -20z m-125 1 c0 -11 -25 -21 -56 -21 -33 0
-30 18 4 23 48 7 52 7 52 -2z m-1600 -12 c0 -6 -9 -18 -20 -27 -23 -20 -79
-125 -109 -206 -12 -33 -28 -71 -36 -85 -7 -15 -25 -64 -39 -110 -15 -46 -35
-95 -47 -109 l-20 -26 7 45 c4 24 11 47 17 50 5 4 6 16 2 28 -12 39 39 178
106 291 12 19 43 58 70 87 27 28 49 57 49 62 0 6 5 11 10 11 6 0 10 -5 10 -11z
m-498 -91 c-15 -15 -26 -4 -18 18 5 13 9 15 18 6 9 -9 9 -15 0 -24z m2961 -12
c-3 -16 2 -29 19 -42 21 -17 78 -96 78 -108 0 -3 -7 -3 -15 0 -8 4 -13 10 -10
14 3 5 1 11 -5 15 -5 3 -10 0 -11 -7 0 -7 -5 -1 -10 13 -5 15 -19 30 -30 36
-25 11 -54 84 -37 94 6 4 7 13 2 20 -6 12 -5 12 8 1 9 -7 13 -22 11 -36z
m-903 0 c0 -7 -8 -20 -18 -29 -14 -13 -21 -14 -30 -5 -16 16 -15 28 2 28 8 0
17 7 20 16 7 17 26 10 26 -10z m935 -188 c8 -18 17 -22 43 -20 33 3 40 -6 20
-26 -9 -9 -7 -19 10 -42 12 -16 22 -33 22 -37 0 -5 8 -13 18 -20 17 -10 18 -8
14 13 -2 14 0 24 7 24 6 0 11 -7 11 -15 0 -8 9 -19 19 -25 11 -5 23 -19 26
-30 3 -11 12 -20 18 -20 7 -1 23 -9 36 -20 28 -24 41 -120 15 -120 -8 0 -14 9
-14 19 0 14 -5 18 -20 14 -13 -4 -22 1 -27 13 -9 24 -52 64 -69 64 -8 0 -14
10 -14 23 0 13 -9 32 -20 42 -11 10 -20 24 -20 32 0 7 -25 38 -55 69 -55 57
-60 65 -48 77 11 12 18 8 28 -15z m35 2 c0 -5 -7 -10 -16 -10 -8 0 -12 5 -9
10 3 6 10 10 16 10 5 0 9 -4 9 -10z m-736 -19 c9 -15 -23 -36 -36 -23 -5 5 -7
15 -4 21 9 13 33 14 40 2z m628 -43 c-7 -7 -12 -8 -12 -2 0 6 3 14 7 17 3 4 9
5 12 2 2 -3 -1 -11 -7 -17z m38 12 c0 -5 -2 -10 -4 -10 -3 0 -8 5 -11 10 -3 6
-1 10 4 10 6 0 11 -4 11 -10z m470 6 c0 -3 -4 -8 -10 -11 -5 -3 -10 -1 -10 4
0 6 5 11 10 11 6 0 10 -2 10 -4z m-1100 -15 c0 -5 -7 -11 -15 -15 -15 -5 -20
5 -8 17 9 10 23 9 23 -2z m690 -71 c0 -5 -4 -10 -10 -10 -5 0 -10 5 -10 10 0
6 5 10 10 10 6 0 10 -4 10 -10z m453 -36 c9 -9 -4 -34 -18 -34 -17 0 -27 27
-12 34 17 7 23 7 30 0z m387 -10 c0 -8 -4 -12 -10 -9 -5 3 -10 10 -10 16 0 5
5 9 10 9 6 0 10 -7 10 -16z m-1173 0 c-3 -3 -12 -4 -19 -1 -8 3 -5 6 6 6 11 1
17 -2 13 -5z m1041 -23 c25 -14 29 -31 6 -31 -31 0 -52 19 -47 41 3 11 9 16
12 11 3 -5 16 -14 29 -21z m-718 -1 c0 -5 6 -10 14 -10 17 0 69 -50 92 -89 10
-17 22 -31 26 -31 4 0 8 -7 8 -15 0 -9 7 -18 15 -21 16 -7 20 -39 6 -48 -12
-8 -101 62 -101 79 0 8 5 15 10 15 21 0 9 18 -27 42 -45 30 -84 88 -59 88 9 0
16 -4 16 -10z m570 -20 c0 -5 -4 -10 -10 -10 -5 0 -10 5 -10 10 0 6 5 10 10
10 6 0 10 -4 10 -10z m274 -15 c-4 -8 -8 -15 -10 -15 -2 0 -4 7 -4 15 0 8 4
15 10 15 5 0 7 -7 4 -15z m-1164 -11 c0 -17 -22 -14 -28 4 -2 7 3 12 12 12 9
0 16 -7 16 -16z m640 0 c0 -8 -5 -12 -10 -9 -6 4 -8 11 -5 16 9 14 15 11 15
-7z m170 6 c0 -5 -4 -10 -10 -10 -5 0 -10 5 -10 10 0 6 5 10 10 10 6 0 10 -4
10 -10z m180 -20 c0 -5 -4 -10 -10 -10 -5 0 -10 5 -10 10 0 6 5 10 10 10 6 0
10 -4 10 -10z m-730 -27 c0 -13 -3 -13 -15 -3 -8 7 -12 16 -9 21 8 13 24 1 24
-18z m-2710 -18 c0 -8 -4 -17 -10 -20 -6 -3 -9 4 -8 19 2 25 18 26 18 1z
m3540 -19 c0 -3 -4 -8 -10 -11 -5 -3 -10 -1 -10 4 0 6 5 11 10 11 6 0 10 -2
10 -4z m-760 -47 c0 -6 6 -9 14 -6 7 3 23 -5 35 -19 34 -39 26 -60 -11 -28
-16 16 -18 15 -24 0 -4 -10 -2 -22 5 -29 6 -6 11 -19 11 -30 0 -25 -33 -14
-82 27 -41 35 -48 56 -18 56 11 0 20 -7 20 -16 0 -8 5 -12 11 -8 6 3 9 19 5
35 -5 24 -2 29 14 29 11 0 20 -5 20 -11z m-3920 -184 c0 -8 -4 -15 -10 -15 -5
0 -10 7 -10 15 0 8 5 15 10 15 6 0 10 -7 10 -15z m230 -65 c0 -5 -4 -10 -10
-10 -5 0 -10 5 -10 10 0 6 5 10 10 10 6 0 10 -4 10 -10z m3858 -55 c9 -20 9
-25 -2 -25 -8 0 -16 11 -18 25 -3 14 -2 25 2 25 4 0 12 -11 18 -25z m46 -41
c13 -35 6 -47 -13 -23 -18 23 -19 39 -1 39 4 0 11 -7 14 -16z m-924 -54 c0 -5
-4 -10 -10 -10 -5 0 -10 5 -10 10 0 6 5 10 10 10 6 0 10 -4 10 -10z m1500
-297 c-1 -24 -2 -26 -11 -10 -5 9 -7 22 -4 27 10 17 15 11 15 -17z m-4700 13
c0 -3 -4 -8 -10 -11 -5 -3 -10 -1 -10 4 0 6 5 11 10 11 6 0 10 -2 10 -4z
m4130 -167 c0 -6 -4 -7 -10 -4 -5 3 -10 11 -10 16 0 6 5 7 10 4 6 -3 10 -11
10 -16z m1084 -42 c8 -12 5 -21 -8 -36 -23 -25 -61 -29 -52 -6 3 8 0 27 -6 41
-23 49 35 50 66 1z m-5077 -33 c1 -5 -2 -16 -7 -24 -12 -20 -35 2 -26 25 6 17
27 16 33 -1z m4991 -74 c2 -19 8 -41 14 -47 8 -10 6 -13 -6 -13 -26 0 -21 -63
9 -98 30 -36 31 -44 7 -65 -17 -16 -20 -16 -40 6 -28 29 -46 167 -30 221 15
48 42 45 46 -4z m-713 -50 c3 -5 1 -19 -6 -31 l-11 -22 -13 24 c-7 13 -11 27
-9 31 7 11 32 10 39 -2z m-3981 -124 c-39 -43 -63 -61 -71 -52 -12 12 73 92
101 95 5 1 -9 -19 -30 -43z m3944 7 c2 -7 -3 -16 -12 -19 -9 -3 -16 -12 -16
-20 0 -23 -30 -16 -40 10 -5 13 -14 26 -21 28 -7 2 -10 9 -6 14 8 14 89 2 95
-13z m30 -101 c3 -28 0 -32 -22 -32 -36 0 -56 38 -30 57 29 21 49 12 52 -25z
m-3579 -61 c12 -7 12 -13 0 -40 -16 -36 -52 -42 -69 -12 -15 28 -13 35 13 47
29 15 39 16 56 5z m3619 -34 c2 -18 -1 -27 -11 -27 -21 0 -40 27 -33 46 10 25
41 12 44 -19z m-3758 -22 c0 -8 -4 -15 -9 -15 -13 0 -22 16 -14 24 11 11 23 6
23 -9z m3783 -72 c-7 -2 -19 -2 -25 0 -7 3 -2 5 12 5 14 0 19 -2 13 -5z m27
-37 c0 -8 -7 -19 -15 -26 -12 -10 -13 -16 -4 -26 13 -16 14 -15 -23 -20 -19
-2 -28 2 -28 12 0 8 5 14 10 14 6 0 18 16 27 35 16 33 33 38 33 11z m40 -60
c0 -11 -19 -15 -25 -6 -3 5 1 10 9 10 9 0 16 -2 16 -4z m97 -12 c-3 -3 -12 -4
-19 -1 -8 3 -5 6 6 6 11 1 17 -2 13 -5z m-118 -30 c2 -2 -2 -10 -9 -19 -15
-18 -135 -22 -145 -5 -15 25 14 36 82 32 37 -2 70 -6 72 -8z m-19 -90 c0 -8
-7 -14 -15 -14 -15 0 -21 21 -9 33 10 9 24 -2 24 -19z m-4020 -73 c0 -11 -30
-19 -47 -14 -24 8 -13 23 17 23 17 0 30 -4 30 -9z m165 -73 c10 -131 3 -253
-15 -253 -13 0 -15 26 -18 168 -2 140 0 167 12 167 11 0 16 -21 21 -82z m2319
-878 c26 -9 37 -40 14 -40 -14 0 -48 30 -48 42 0 10 3 10 34 -2z m216 -217 c0
-13 -3 -13 -15 -3 -8 7 -15 19 -15 27 0 13 3 13 15 3 8 -7 15 -19 15 -27z m0
-363 c0 -5 -4 -10 -10 -10 -5 0 -10 5 -10 10 0 6 5 10 10 10 6 0 10 -4 10 -10z"/>
<path d="M4277 4558 c18 -31 43 -49 43 -30 0 14 -40 62 -52 62 -5 0 -2 -14 9
-32z"/>
<path d="M4364 4463 c16 -33 33 -49 42 -40 3 3 -9 20 -26 39 l-31 33 15 -32z"/>
<path d="M4255 4470 c-8 -13 5 -13 25 0 13 8 13 10 -2 10 -9 0 -20 -4 -23 -10z"/>
<path d="M5220 4470 c0 -5 5 -10 10 -10 6 0 10 5 10 10 0 6 -4 10 -10 10 -5 0
-10 -4 -10 -10z"/>
<path d="M4460 4322 c0 -5 7 -16 16 -23 14 -12 16 -11 13 5 -4 20 -29 35 -29
18z"/>
<path d="M3485 3779 c-4 -6 -5 -13 -2 -16 7 -7 27 6 27 18 0 12 -17 12 -25 -2z"/>
<path d="M5240 2534 c-22 -9 -26 -12 -10 -9 14 2 35 5 48 5 12 0 22 5 22 10 0
13 -18 12 -60 -6z"/>
<path d="M3500 1755 c0 -8 5 -15 10 -15 6 0 10 7 10 15 0 8 -4 15 -10 15 -5 0
-10 -7 -10 -15z"/>
<path d="M3285 1554 c-22 -7 -41 -14 -42 -14 -2 0 -3 -5 -3 -11 0 -15 60 -3
79 16 22 22 11 25 -34 9z"/>
<path d="M5377 1244 c-1 -1 -46 -4 -99 -6 -54 -3 -101 -8 -105 -12 -10 -10
290 5 302 15 5 6 -13 8 -43 7 -29 -1 -54 -3 -55 -4z"/>
<path d="M5088 1223 c12 -2 30 -2 40 0 9 3 -1 5 -23 4 -22 0 -30 -2 -17 -4z"/>
<path d="M4923 1213 c15 -2 37 -2 50 0 12 2 0 4 -28 4 -27 0 -38 -2 -22 -4z"/>
<path d="M4540 1200 c-14 -5 43 -6 130 -3 85 3 157 7 159 9 8 8 -265 2 -289
-6z"/>
<path d="M4298 1173 c7 -3 16 -2 19 1 4 3 -2 6 -13 5 -11 0 -14 -3 -6 -6z"/>
<path d="M5358 1005 c-3 -3 -43 -8 -89 -10 -105 -6 -342 -32 -367 -39 -10 -4
-42 -2 -72 4 -31 6 -56 6 -59 1 -7 -10 -54 -17 -189 -30 -52 -5 -97 -12 -100
-16 -12 -11 23 -25 66 -25 29 0 42 -4 42 -14 0 -9 19 -15 59 -19 57 -6 88 -13
219 -44 55 -14 139 -12 164 3 9 6 197 17 314 18 127 1 134 7 134 105 0 65 -9
87 -25 61 -6 -9 -25 -7 -76 6 -8 2 -18 2 -21 -1z m-678 -125 c0 -5 -4 -10 -10
-10 -5 0 -10 5 -10 10 0 6 5 10 10 10 6 0 10 -4 10 -10z"/>
<path d="M875 720 c-3 -5 3 -10 15 -10 12 0 18 5 15 10 -3 6 -10 10 -15 10 -5
0 -12 -4 -15 -10z"/>
<path d="M928 703 c7 -3 16 -2 19 1 4 3 -2 6 -13 5 -11 0 -14 -3 -6 -6z"/>
<path d="M4491 653 c0 -12 -4 -30 -7 -40 -5 -14 -4 -15 5 -7 7 6 11 24 8 40
-3 21 -4 23 -6 7z"/>
<path d="M5200 600 c0 -5 14 -10 32 -10 36 0 35 4 -4 14 -17 4 -28 2 -28 -4z"/>
<path d="M4444 541 c-96 -133 -199 -238 -304 -310 -62 -42 -237 -144 -318
-185 -51 -26 -67 -50 -19 -29 113 50 248 126 297 168 14 11 36 27 50 33 26 13
175 152 227 213 17 20 44 56 59 80 16 24 33 47 39 51 5 4 7 10 3 13 -3 3 -19
-12 -34 -34z"/>
<path d="M5430 540 c0 -6 7 -10 15 -10 8 0 15 2 15 4 0 2 -7 6 -15 10 -8 3
-15 1 -15 -4z"/>
<path d="M1360 38 c0 -7 8 -14 18 -14 9 0 36 -3 60 -7 34 -6 42 -4 42 8 0 9
-9 15 -22 15 -13 0 -40 3 -60 6 -29 5 -38 3 -38 -8z"/>
<path d="M710 20 c0 -5 10 -10 23 -10 18 0 19 2 7 10 -19 13 -30 13 -30 0z"/>
<path d="M765 10 c-3 -5 1 -10 10 -10 9 0 13 5 10 10 -3 6 -8 10 -10 10 -2 0
-7 -4 -10 -10z"/>
</g>
</svg>
